<svg width="307" height="772" viewBox="0 0 307 772" fill="none" xmlns="http://www.w3.org/2000/svg">
<mask id="path-1-outside-1_2001_152" maskUnits="userSpaceOnUse" x="18" y="291" width="255" height="378" fill="black">
<rect fill="white" x="18" y="291" width="255" height="378"/>
<path d="M137.562 292.122C159.051 292.122 177.817 296.813 193.858 306.196C210.202 315.579 222.309 327.383 230.178 341.608V296.208H271.946V550.448C271.946 573.148 267.103 593.275 257.418 610.83C247.733 628.687 233.81 642.61 215.65 652.598C197.793 662.586 176.909 667.58 152.998 667.58C120.31 667.58 93.07 659.862 71.278 644.426C49.486 628.99 36.6227 607.955 32.688 581.32H73.548C78.088 596.453 87.4707 608.56 101.696 617.64C115.921 627.023 133.022 631.714 152.998 631.714C175.698 631.714 194.161 624.601 208.386 610.376C222.914 596.151 230.178 576.175 230.178 550.448V498.238C222.006 512.766 209.899 524.873 193.858 534.558C177.817 544.243 159.051 549.086 137.562 549.086C115.467 549.086 95.34 543.638 77.18 532.742C59.3227 521.846 45.2487 506.561 34.958 486.888C24.6673 467.215 19.522 444.817 19.522 419.696C19.522 394.272 24.6673 372.026 34.958 352.958C45.2487 333.587 59.3227 318.605 77.18 308.012C95.34 297.419 115.467 292.122 137.562 292.122ZM230.178 420.15C230.178 401.385 226.395 385.041 218.828 371.118C211.261 357.195 200.971 346.602 187.956 339.338C175.244 331.771 161.17 327.988 145.734 327.988C130.298 327.988 116.224 331.62 103.512 338.884C90.8 346.148 80.6607 356.741 73.094 370.664C65.5273 384.587 61.744 400.931 61.744 419.696C61.744 438.764 65.5273 455.411 73.094 469.636C80.6607 483.559 90.8 494.303 103.512 501.87C116.224 509.134 130.298 512.766 145.734 512.766C161.17 512.766 175.244 509.134 187.956 501.87C200.971 494.303 211.261 483.559 218.828 469.636C226.395 455.411 230.178 438.915 230.178 420.15Z"/>
</mask>
<path d="M193.858 306.196L193.353 307.059L193.36 307.063L193.858 306.196ZM230.178 341.608L229.303 342.092L231.178 341.608H230.178ZM230.178 296.208V295.208H229.178V296.208H230.178ZM271.946 296.208H272.946V295.208H271.946V296.208ZM257.418 610.83L256.542 610.347L256.539 610.353L257.418 610.83ZM215.65 652.598L215.168 651.722L215.162 651.725L215.65 652.598ZM71.278 644.426L70.7 645.242L70.7 645.242L71.278 644.426ZM32.688 581.32V580.32H31.5294L31.6987 581.466L32.688 581.32ZM73.548 581.32L74.5058 581.033L74.292 580.32H73.548V581.32ZM101.696 617.64L102.247 616.805L102.24 616.801L102.234 616.797L101.696 617.64ZM208.386 610.376L207.686 609.661L207.679 609.669L208.386 610.376ZM230.178 498.238H231.178V494.42L229.306 497.748L230.178 498.238ZM193.858 534.558L193.341 533.702L193.858 534.558ZM77.18 532.742L76.6591 533.596L76.6655 533.599L77.18 532.742ZM34.958 486.888L35.8441 486.424L35.8441 486.424L34.958 486.888ZM34.958 352.958L35.838 353.433L35.8411 353.427L34.958 352.958ZM77.18 308.012L76.6761 307.148L76.6698 307.152L77.18 308.012ZM187.956 339.338L187.445 340.197L187.456 340.204L187.469 340.211L187.956 339.338ZM103.512 338.884L103.016 338.016L103.016 338.016L103.512 338.884ZM73.094 370.664L73.9726 371.142L73.9726 371.142L73.094 370.664ZM73.094 469.636L72.2111 470.106L72.2154 470.114L73.094 469.636ZM103.512 501.87L103.001 502.729L103.008 502.734L103.016 502.738L103.512 501.87ZM187.956 501.87L188.452 502.738L188.459 502.735L187.956 501.87ZM218.828 469.636L219.707 470.114L219.711 470.106L218.828 469.636ZM137.562 293.122C158.902 293.122 177.488 297.779 193.353 307.059L194.363 305.333C178.146 295.847 159.201 291.122 137.562 291.122V293.122ZM193.36 307.063C209.571 316.37 221.535 328.05 229.303 342.092L231.053 341.124C223.082 326.715 210.833 314.788 194.356 305.329L193.36 307.063ZM231.178 341.608V296.208H229.178V341.608H231.178ZM230.178 297.208H271.946V295.208H230.178V297.208ZM270.946 296.208V550.448H272.946V296.208H270.946ZM270.946 550.448C270.946 573.002 266.136 592.959 256.542 610.347L258.294 611.313C268.071 593.592 272.946 573.294 272.946 550.448H270.946ZM256.539 610.353C246.947 628.039 233.164 641.824 215.168 651.722L216.132 653.474C234.456 643.396 248.518 629.336 258.297 611.307L256.539 610.353ZM215.162 651.725C197.477 661.617 176.767 666.58 152.998 666.58V668.58C177.051 668.58 198.108 663.555 216.138 653.471L215.162 651.725ZM152.998 666.58C120.47 666.58 93.4443 658.902 71.856 643.61L70.7 645.242C92.6957 660.822 120.15 668.58 152.998 668.58V666.58ZM71.856 643.61C50.2889 628.333 37.5724 607.541 33.6773 581.174L31.6987 581.466C35.6729 608.368 48.6832 629.647 70.7 645.242L71.856 643.61ZM32.688 582.32H73.548V580.32H32.688V582.32ZM72.5902 581.607C77.2039 596.987 86.7456 609.284 101.158 618.483L102.234 616.797C88.1958 607.836 78.9721 595.92 74.5058 581.033L72.5902 581.607ZM101.145 618.475C115.561 627.983 132.861 632.714 152.998 632.714V630.714C133.183 630.714 116.282 626.063 102.247 616.805L101.145 618.475ZM152.998 632.714C175.926 632.714 194.656 625.521 209.093 611.083L207.679 609.669C193.666 623.682 175.47 630.714 152.998 630.714V632.714ZM209.086 611.091C223.854 596.63 231.178 576.368 231.178 550.448H229.178C229.178 575.981 221.974 595.671 207.686 609.661L209.086 611.091ZM231.178 550.448V498.238H229.178V550.448H231.178ZM229.306 497.748C221.229 512.107 209.253 524.095 193.341 533.702L194.375 535.414C210.545 525.651 222.783 513.425 231.05 498.728L229.306 497.748ZM193.341 533.702C177.478 543.28 158.896 548.086 137.562 548.086V550.086C159.206 550.086 178.156 545.207 194.375 535.414L193.341 533.702ZM137.562 548.086C115.64 548.086 95.6922 542.683 77.6945 531.885L76.6655 533.599C94.9878 544.593 115.294 550.086 137.562 550.086V548.086ZM77.7009 531.888C60.008 521.093 46.056 505.947 35.8441 486.424L34.0719 487.351C44.4413 507.175 58.6373 522.599 76.6591 533.596L77.7009 531.888ZM35.8441 486.424C25.6376 466.912 20.522 444.677 20.522 419.696H18.522C18.522 444.957 23.6971 467.517 34.0719 487.351L35.8441 486.424ZM20.522 419.696C20.522 394.409 25.6387 372.332 35.838 353.433L34.078 352.483C23.6959 371.72 18.522 394.135 18.522 419.696H20.522ZM35.8411 353.427C46.0508 334.209 59.9997 319.366 77.6902 308.872L76.6698 307.152C58.6456 317.844 44.4466 332.966 34.0749 352.489L35.8411 353.427ZM77.6839 308.876C95.683 298.376 115.635 293.122 137.562 293.122V291.122C115.3 291.122 94.997 296.461 76.6761 307.148L77.6839 308.876ZM231.178 420.15C231.178 401.249 227.366 384.735 219.707 370.64L217.949 371.596C225.423 385.347 229.178 401.521 229.178 420.15H231.178ZM219.707 370.64C212.056 356.563 201.634 345.827 188.443 338.465L187.469 340.211C200.307 347.377 210.467 357.828 217.949 371.596L219.707 370.64ZM188.467 338.479C175.594 330.816 161.342 326.988 145.734 326.988V328.988C160.998 328.988 174.894 332.727 187.445 340.197L188.467 338.479ZM145.734 326.988C130.134 326.988 115.887 330.661 103.016 338.016L104.008 339.752C116.561 332.579 130.462 328.988 145.734 328.988V326.988ZM103.016 338.016C90.1293 345.38 79.8632 356.115 72.2154 370.186L73.9726 371.142C81.4582 357.368 91.4707 346.916 104.008 339.752L103.016 338.016ZM72.2154 370.186C64.5556 384.281 60.744 400.795 60.744 419.696H62.744C62.744 401.067 66.4991 384.893 73.9726 371.142L72.2154 370.186ZM60.744 419.696C60.744 438.898 64.5546 455.711 72.2111 470.106L73.9769 469.166C66.5001 455.11 62.744 438.63 62.744 419.696H60.744ZM72.2154 470.114C79.8616 484.182 90.123 495.064 103.001 502.729L104.023 501.011C91.477 493.543 81.4598 482.935 73.9726 469.158L72.2154 470.114ZM103.016 502.738C115.887 510.093 130.134 513.766 145.734 513.766V511.766C130.462 511.766 116.561 508.175 104.008 501.002L103.016 502.738ZM145.734 513.766C161.334 513.766 175.581 510.093 188.452 502.738L187.46 501.002C174.907 508.175 161.006 511.766 145.734 511.766V513.766ZM188.459 502.735C201.64 495.071 212.057 484.188 219.707 470.114L217.949 469.158C210.465 482.929 200.301 493.536 187.453 501.005L188.459 502.735ZM219.711 470.106C227.366 455.714 231.178 439.052 231.178 420.15H229.178C229.178 438.779 225.423 455.108 217.945 469.166L219.711 470.106Z" fill="#363636" mask="url(#path-1-outside-1_2001_152)"/>
<path d="M42.3671 480.681C46.0426 480.681 49.1438 481.6 51.6709 483.437C54.2437 485.275 56.0355 487.733 57.0464 490.812V481.163H63.3178V519.619C63.3178 523.111 62.5826 526.212 61.1125 528.923C59.6423 531.633 57.5748 533.747 54.91 535.263C52.2451 536.779 49.1438 537.537 45.6062 537.537C40.5063 537.537 36.3483 536.297 33.1322 533.816C29.9161 531.381 27.8715 528.073 26.9986 523.892H33.2011C33.9362 526.419 35.3146 528.394 37.3361 529.819C39.4036 531.289 42.0455 532.024 45.2616 532.024C48.6614 532.024 51.4641 530.921 53.6695 528.716C55.9208 526.557 57.0464 523.524 57.0464 519.619V509.35C56.0355 512.429 54.2437 514.886 51.6709 516.724C49.1438 518.562 46.0426 519.481 42.3671 519.481C39.0131 519.481 36.0267 518.7 33.4079 517.138C30.789 515.576 28.7215 513.347 27.2053 510.453C25.7351 507.512 25 504.066 25 500.115C25 496.164 25.7351 492.718 27.2053 489.778C28.7215 486.837 30.789 484.586 33.4079 483.024C36.0267 481.462 39.0131 480.681 42.3671 480.681ZM44.1589 486.263C40.2996 486.263 37.1983 487.504 34.8551 489.985C32.5579 492.42 31.4093 495.796 31.4093 500.115C31.4093 504.434 32.5579 507.834 34.8551 510.315C37.1983 512.75 40.2996 513.968 44.1589 513.968C46.6399 513.968 48.8453 513.393 50.7749 512.245C52.7506 511.096 54.2897 509.488 55.3924 507.421C56.4951 505.307 57.0464 502.872 57.0464 500.115C57.0464 497.359 56.4951 494.924 55.3924 492.81C54.2897 490.697 52.7506 489.089 50.7749 487.986C48.8453 486.837 46.6399 486.263 44.1589 486.263ZM79.5705 468V518.999H73.299V468H79.5705ZM124.456 497.979C124.456 499.311 124.364 500.46 124.181 501.425H93.9262C94.064 505.744 95.2814 508.983 97.5788 511.142C99.9219 513.301 102.77 514.381 106.124 514.381C109.157 514.381 111.684 513.623 113.705 512.107C115.773 510.545 117.036 508.477 117.496 505.904H124.181C123.721 508.523 122.687 510.866 121.079 512.934C119.517 515.001 117.473 516.609 114.946 517.758C112.419 518.907 109.57 519.481 106.4 519.481C102.77 519.481 99.5542 518.7 96.7518 517.138C93.9491 515.576 91.7437 513.347 90.1357 510.453C88.5735 507.512 87.7926 504.066 87.7926 500.115C87.7926 496.164 88.5735 492.718 90.1357 489.778C91.7437 486.837 93.9491 484.586 96.7518 483.024C99.5542 481.462 102.77 480.681 106.4 480.681C110.076 480.681 113.269 481.462 115.98 483.024C118.736 484.586 120.827 486.676 122.251 489.295C123.721 491.914 124.456 494.809 124.456 497.979ZM118.116 498.392C118.254 495.59 117.794 493.247 116.738 491.363C115.681 489.479 114.234 488.078 112.396 487.159C110.558 486.24 108.559 485.781 106.4 485.781C102.954 485.781 100.06 486.86 97.7166 489.02C95.3734 491.133 94.1098 494.257 93.9262 498.392H118.116ZM148.165 480.681C151.841 480.681 154.942 481.6 157.469 483.437C160.042 485.275 161.834 487.733 162.845 490.812V481.163H169.116V518.999H162.845V509.35C161.834 512.429 160.042 514.886 157.469 516.724C154.942 518.562 151.841 519.481 148.165 519.481C144.812 519.481 141.825 518.7 139.206 517.138C136.587 515.576 134.52 513.347 133.004 510.453C131.533 507.512 130.798 504.066 130.798 500.115C130.798 496.164 131.533 492.718 133.004 489.778C134.52 486.837 136.587 484.586 139.206 483.024C141.825 481.462 144.812 480.681 148.165 480.681ZM149.957 486.263C146.098 486.263 142.997 487.504 140.653 489.985C138.356 492.42 137.208 495.796 137.208 500.115C137.208 504.434 138.356 507.834 140.653 510.315C142.997 512.75 146.098 513.968 149.957 513.968C152.438 513.968 154.644 513.393 156.573 512.245C158.549 511.096 160.088 509.488 161.191 507.421C162.293 505.307 162.845 502.872 162.845 500.115C162.845 497.359 162.293 494.924 161.191 492.81C160.088 490.697 158.549 489.089 156.573 487.986C154.644 486.837 152.438 486.263 149.957 486.263ZM225.616 480.543C230.027 480.543 233.565 481.967 236.23 484.816C238.94 487.618 240.294 491.685 240.294 497.014V518.999H234.024V497.565C234.024 493.844 233.105 490.995 231.267 489.02C229.476 487.044 226.995 486.056 223.824 486.056C220.516 486.056 217.852 487.159 215.83 489.364C213.854 491.524 212.867 494.717 212.867 498.944V518.999H206.595V497.565C206.595 493.844 205.676 490.995 203.838 489.02C202.001 487.044 199.52 486.056 196.395 486.056C193.041 486.056 190.354 487.159 188.332 489.364C186.356 491.524 185.369 494.717 185.369 498.944V518.999H179.097V481.163H185.369V489.778C186.288 486.791 187.919 484.517 190.262 482.955C192.651 481.347 195.385 480.543 198.463 480.543C201.679 480.543 204.459 481.37 206.802 483.024C209.191 484.632 210.891 487.021 211.902 490.191C212.958 487.113 214.727 484.747 217.208 483.093C219.689 481.393 222.492 480.543 225.616 480.543ZM252.652 481.163L264.918 510.935L276.29 481.163H283.252L260.783 536.917H253.686L261.543 518.378L245.622 481.163H252.652Z" fill="white"/>
<mask id="mask0_2001_152" style="mask-type:alpha" maskUnits="userSpaceOnUse" x="25" y="468" width="259" height="70">
<path d="M42.3671 480.681C46.0426 480.681 49.1438 481.6 51.6709 483.437C54.2437 485.275 56.0355 487.733 57.0464 490.812V481.163H63.3178V519.619C63.3178 523.111 62.5826 526.212 61.1125 528.923C59.6423 531.633 57.5748 533.747 54.91 535.263C52.2451 536.779 49.1438 537.537 45.6062 537.537C40.5063 537.537 36.3483 536.297 33.1322 533.816C29.9161 531.381 27.8715 528.073 26.9986 523.892H33.2011C33.9362 526.419 35.3146 528.394 37.3361 529.819C39.4036 531.289 42.0455 532.024 45.2616 532.024C48.6614 532.024 51.4641 530.921 53.6695 528.716C55.9208 526.557 57.0464 523.524 57.0464 519.619V509.35C56.0355 512.429 54.2437 514.886 51.6709 516.724C49.1438 518.562 46.0426 519.481 42.3671 519.481C39.0131 519.481 36.0267 518.7 33.4079 517.138C30.789 515.576 28.7215 513.347 27.2053 510.453C25.7351 507.512 25 504.066 25 500.115C25 496.164 25.7351 492.718 27.2053 489.778C28.7215 486.837 30.789 484.586 33.4079 483.024C36.0267 481.462 39.0131 480.681 42.3671 480.681ZM44.1589 486.263C40.2996 486.263 37.1983 487.504 34.8551 489.985C32.5579 492.42 31.4093 495.796 31.4093 500.115C31.4093 504.434 32.5579 507.834 34.8551 510.315C37.1983 512.75 40.2996 513.968 44.1589 513.968C46.6399 513.968 48.8453 513.393 50.7749 512.245C52.7506 511.096 54.2897 509.488 55.3924 507.421C56.4951 505.307 57.0464 502.872 57.0464 500.115C57.0464 497.359 56.4951 494.924 55.3924 492.81C54.2897 490.697 52.7506 489.089 50.7749 487.986C48.8453 486.837 46.6399 486.263 44.1589 486.263ZM79.5705 468V518.999H73.299V468H79.5705ZM124.456 497.979C124.456 499.311 124.364 500.46 124.181 501.425H93.9262C94.064 505.744 95.2814 508.983 97.5788 511.142C99.9219 513.301 102.77 514.381 106.124 514.381C109.157 514.381 111.684 513.623 113.705 512.107C115.773 510.545 117.036 508.477 117.496 505.904H124.181C123.721 508.523 122.687 510.866 121.079 512.934C119.517 515.001 117.473 516.609 114.946 517.758C112.419 518.907 109.57 519.481 106.4 519.481C102.77 519.481 99.5542 518.7 96.7518 517.138C93.9491 515.576 91.7437 513.347 90.1357 510.453C88.5735 507.512 87.7926 504.066 87.7926 500.115C87.7926 496.164 88.5735 492.718 90.1357 489.778C91.7437 486.837 93.9491 484.586 96.7518 483.024C99.5542 481.462 102.77 480.681 106.4 480.681C110.076 480.681 113.269 481.462 115.98 483.024C118.736 484.586 120.827 486.676 122.251 489.295C123.721 491.914 124.456 494.809 124.456 497.979ZM118.116 498.392C118.254 495.59 117.794 493.247 116.738 491.363C115.681 489.479 114.234 488.078 112.396 487.159C110.558 486.24 108.559 485.781 106.4 485.781C102.954 485.781 100.06 486.86 97.7166 489.02C95.3734 491.133 94.1098 494.257 93.9262 498.392H118.116ZM148.165 480.681C151.841 480.681 154.942 481.6 157.469 483.437C160.042 485.275 161.834 487.733 162.845 490.812V481.163H169.116V518.999H162.845V509.35C161.834 512.429 160.042 514.886 157.469 516.724C154.942 518.562 151.841 519.481 148.165 519.481C144.812 519.481 141.825 518.7 139.206 517.138C136.587 515.576 134.52 513.347 133.004 510.453C131.533 507.512 130.798 504.066 130.798 500.115C130.798 496.164 131.533 492.718 133.004 489.778C134.52 486.837 136.587 484.586 139.206 483.024C141.825 481.462 144.812 480.681 148.165 480.681ZM149.957 486.263C146.098 486.263 142.997 487.504 140.653 489.985C138.356 492.42 137.208 495.796 137.208 500.115C137.208 504.434 138.356 507.834 140.653 510.315C142.997 512.75 146.098 513.968 149.957 513.968C152.438 513.968 154.644 513.393 156.573 512.245C158.549 511.096 160.088 509.488 161.191 507.421C162.293 505.307 162.845 502.872 162.845 500.115C162.845 497.359 162.293 494.924 161.191 492.81C160.088 490.697 158.549 489.089 156.573 487.986C154.644 486.837 152.438 486.263 149.957 486.263ZM225.616 480.543C230.027 480.543 233.565 481.967 236.23 484.816C238.94 487.618 240.294 491.685 240.294 497.014V518.999H234.024V497.565C234.024 493.844 233.105 490.995 231.267 489.02C229.476 487.044 226.995 486.056 223.824 486.056C220.516 486.056 217.852 487.159 215.83 489.364C213.854 491.524 212.867 494.717 212.867 498.944V518.999H206.595V497.565C206.595 493.844 205.676 490.995 203.838 489.02C202.001 487.044 199.52 486.056 196.395 486.056C193.041 486.056 190.354 487.159 188.332 489.364C186.356 491.524 185.369 494.717 185.369 498.944V518.999H179.097V481.163H185.369V489.778C186.288 486.791 187.919 484.517 190.262 482.955C192.651 481.347 195.385 480.543 198.463 480.543C201.679 480.543 204.459 481.37 206.802 483.024C209.191 484.632 210.891 487.021 211.902 490.191C212.958 487.113 214.727 484.747 217.208 483.093C219.689 481.393 222.492 480.543 225.616 480.543ZM252.652 481.163L264.918 510.935L276.29 481.163H283.252L260.783 536.917H253.686L261.543 518.378L245.622 481.163H252.652Z" fill="black"/>
</mask>
<g mask="url(#mask0_2001_152)">
<path d="M65.9895 517.783L50.3718 521.492L52.1522 528.989L67.7699 525.28L65.9895 517.783Z" fill="#FF7E21" stroke="white" stroke-width="1.25519"/>
</g>
</svg>
